<svg width="478" height="464" viewBox="0 0 478 464" fill="none" xmlns="http://www.w3.org/2000/svg">
<path d="M59.0362 91.52C60.5966 92.797 62.4935 93.438 64.3831 93.438C66.6907 93.438 68.9983 92.481 70.6471 90.637C73.6062 87.36 73.1965 82.239 69.8186 79.36C66.3613 76.481 61.175 76.797 58.2077 80.161C55.1694 83.52 55.579 88.559 59.0362 91.52Z" fill="#B6B8BE"/>
<path d="M40.4298 346.558C36.6422 348.956 35.4843 353.917 37.9534 357.597C39.521 359.999 42.2392 361.277 44.8772 361.277C46.4375 361.277 48.005 360.879 49.4038 360C53.1914 357.598 54.2607 352.637 51.8719 348.957C49.3235 345.199 44.2174 344.16 40.4298 346.558Z" fill="#B6B8BE"/>
<path d="M59.2863 372.797C55.8291 375.68 55.4987 380.719 58.4577 384.078C60.0253 385.918 62.3256 386.797 64.6332 386.797C66.6114 386.797 68.5011 386.16 70.0686 384.879C73.4455 382 73.8562 376.879 70.8889 373.598C67.9298 370.238 62.655 369.918 59.2863 372.797Z" fill="#B6B8BE"/>
<path d="M93.2916 395.359H93.3719C89.9147 392.48 84.7283 392.796 81.6807 396.16C78.7134 399.519 79.1241 404.558 82.501 407.437C84.0686 408.796 86.0468 409.437 87.9365 409.437C90.244 409.437 92.5516 408.48 94.1922 406.636C97.1585 403.277 96.7488 398.238 93.2916 395.359Z" fill="#B6B8BE"/>
<path d="M118.732 413.84C114.944 411.438 109.838 412.559 107.37 416.238C104.902 420 106.052 424.957 109.838 427.277C111.237 428.16 112.717 428.558 114.285 428.558C117.003 428.558 119.64 427.277 121.2 424.878C123.669 421.199 122.6 416.238 118.732 413.84Z" fill="#B6B8BE"/>
<path d="M8.23393 240.238C12.7605 240.16 16.4679 236.636 16.4679 232.238C16.4679 227.758 12.7605 224.238 8.23393 224.238C3.70733 224.238 0 227.758 0 232.238C0 236.637 3.70733 240.238 8.23393 240.238Z" fill="#B6B8BE"/>
<path d="M469.234 240.238C473.761 240.16 477.468 236.636 477.468 232.238C477.468 227.758 473.761 224.238 469.234 224.238C464.707 224.238 461 227.758 461 232.238C461 236.637 464.707 240.238 469.234 240.238Z" fill="#B6B8BE"/>
<path d="M36.5545 321.918C34.6648 317.918 29.8078 316.16 25.6023 318C21.4854 319.84 19.676 324.559 21.5739 328.559C22.9726 331.52 25.9317 333.278 29.0678 333.278C30.2175 333.278 31.3671 333.04 32.525 332.481C36.643 330.636 38.4514 325.918 36.5545 321.918Z" fill="#B6B8BE"/>
<path d="M25.4418 293.039C24.2036 288.797 19.5957 286.399 15.2296 287.68C10.8636 288.879 8.39444 293.359 9.63262 297.598C10.702 301.039 13.9987 303.36 17.5372 303.36C18.2772 303.36 19.0975 303.2 19.8447 302.958C24.2036 301.758 26.7602 297.277 25.4418 293.039Z" fill="#B6B8BE"/>
<path d="M301.608 439.277C297.242 440.48 294.773 444.957 296.092 449.199C297.162 452.637 300.37 454.879 303.997 454.879C304.737 454.879 305.557 454.797 306.304 454.559C310.662 453.36 313.14 448.879 311.901 444.637C310.582 440.398 306.054 438 301.608 439.277Z" fill="#B6B8BE"/>
<path d="M270.65 445.84C266.115 446.399 262.987 450.481 263.646 454.879C264.306 458.879 267.763 461.68 271.8 461.68C272.209 461.68 272.62 461.68 273.038 461.598C272.949 461.598 272.949 461.598 272.949 461.598C277.484 461.039 280.612 456.957 279.953 452.559C279.294 448.238 275.177 445.199 270.65 445.84Z" fill="#B6B8BE"/>
<path d="M331.335 428.48C327.218 430.32 325.401 435.039 327.299 439.039C328.617 442 331.665 443.68 334.792 443.68C335.942 443.68 337.092 443.438 338.161 442.957C342.278 441.117 344.176 436.398 342.198 432.398C340.308 428.32 335.452 426.636 331.335 428.48Z" fill="#B6B8BE"/>
<path d="M9.38363 208.238C9.79326 208.32 10.1236 208.32 10.5415 208.32C14.57 208.32 18.1157 205.437 18.6869 201.437C19.3467 197.039 16.1375 193.039 11.6912 192.398C7.16458 191.757 2.9591 194.796 2.38788 199.199C1.72916 203.598 4.85702 207.598 9.38363 208.238Z" fill="#B6B8BE"/>
<path d="M359.165 413.597C355.289 415.999 354.219 420.956 356.688 424.718C358.256 427.038 360.894 428.32 363.612 428.32C365.172 428.32 366.66 427.918 368.058 427.039C371.926 424.637 372.996 419.758 370.527 416C368.057 412.32 362.951 411.199 359.165 413.597Z" fill="#B6B8BE"/>
<path d="M207.327 445.84C202.8 445.199 198.683 448.238 198.024 452.637C197.444 457.039 200.492 461.039 205.019 461.68C205.437 461.758 205.848 461.758 206.258 461.758C210.214 461.758 213.752 458.879 214.331 454.879C214.983 450.48 211.855 446.48 207.327 445.84Z" fill="#B6B8BE"/>
<path d="M176.37 439.359C172.004 438.16 167.396 440.558 166.158 444.797C164.839 449.039 167.307 453.52 171.673 454.719C171.754 454.719 171.754 454.719 171.754 454.719C172.502 454.957 173.241 455.039 173.981 455.039C177.6 455.039 180.896 452.797 181.966 449.277C183.205 445.039 180.648 440.558 176.37 439.359Z" fill="#B6B8BE"/>
<path d="M239.033 448C234.418 448 230.799 451.598 230.799 456C230.799 460.398 234.418 464 239.033 464C243.559 464 247.267 460.398 247.267 456C247.267 451.597 243.56 448 239.033 448Z" fill="#B6B8BE"/>
<path d="M146.562 428.636C142.445 426.796 137.588 428.558 135.69 432.558C133.8 436.558 135.61 441.359 139.727 443.199C140.876 443.679 142.034 443.918 143.184 443.918C146.312 443.918 149.279 442.16 150.678 439.199C152.577 435.199 150.76 430.48 146.562 428.636Z" fill="#B6B8BE"/>
<path d="M331.005 35.359C332.074 35.839 333.304 36.078 334.374 36.078C337.51 36.078 340.469 34.398 341.868 31.437C343.766 27.437 341.956 22.636 337.839 20.796C333.722 19.038 328.777 20.796 326.887 24.796C325.072 28.797 326.888 33.52 331.005 35.359Z" fill="#B6B8BE"/>
<path d="M384.525 395.117C381.068 398 380.649 403.039 383.697 406.398C385.346 408.238 387.565 409.117 389.872 409.117C391.85 409.117 393.74 408.48 395.308 407.199C398.765 404.32 399.095 399.199 396.128 395.918C393.09 392.558 387.895 392.238 384.525 395.117Z" fill="#B6B8BE"/>
<path d="M358.835 50.16C360.233 51.039 361.794 51.437 363.281 51.437C365.999 51.437 368.628 50.16 370.196 47.757C372.665 43.999 371.595 39.116 367.728 36.718C363.941 34.32 358.835 35.359 356.367 39.116C353.89 42.797 355.048 47.758 358.835 50.16Z" fill="#B6B8BE"/>
<path d="M301.278 24.637C302.018 24.879 302.759 24.957 303.498 24.957C307.124 24.957 310.421 22.719 311.491 19.199C312.721 14.957 310.252 10.48 305.886 9.27701C301.529 8.07801 296.912 10.48 295.683 14.718C294.363 18.957 296.911 23.438 301.278 24.637Z" fill="#B6B8BE"/>
<path d="M270.233 18.16C270.65 18.238 271.061 18.238 271.39 18.238C275.427 18.238 278.965 15.359 279.544 11.359C280.204 6.95699 277.068 2.95699 272.54 2.31999C268.013 1.67899 263.897 4.71799 263.237 9.11699C262.577 13.438 265.705 17.52 270.233 18.16Z" fill="#B6B8BE"/>
<path d="M238.535 16C238.565 16 238.585 16 238.615 16C243.15 16 246.849 12.398 246.849 8C246.769 3.598 243.15 0 238.535 0C234.008 0 230.301 3.598 230.301 8C230.301 12.398 234.007 16 238.535 16Z" fill="#B6B8BE"/>
<path d="M452.126 170.957C453.115 174.398 456.403 176.719 459.942 176.719C460.771 176.719 461.51 176.559 462.33 176.399C466.696 175.118 469.165 170.637 467.934 166.481C467.934 166.399 467.934 166.399 467.934 166.399C466.616 162.161 461.999 159.758 457.642 161.04C453.276 162.238 450.808 166.719 452.126 170.957Z" fill="#B6B8BE"/>
<path d="M15.1495 176.719C15.8895 176.957 16.717 177.039 17.457 177.039C20.9955 177.039 24.2922 174.797 25.3616 171.277C26.5915 167.039 24.1234 162.636 19.7574 161.359C15.3996 160.16 10.7834 162.636 9.55348 166.879C9.55348 166.797 9.55348 166.797 9.55348 166.797C8.31427 171.039 10.7834 175.52 15.1495 176.719Z" fill="#B6B8BE"/>
<path d="M384.276 68.637C385.837 69.918 387.734 70.559 389.623 70.559C391.931 70.559 394.238 69.68 395.887 67.84C398.846 64.481 398.437 59.438 395.059 56.559C391.602 53.68 386.415 54 383.448 57.36C380.409 60.719 380.819 65.758 384.276 68.637Z" fill="#B6B8BE"/>
<path d="M441.005 142.078C442.404 145.039 445.371 146.797 448.499 146.797C449.568 146.797 450.807 146.559 451.876 146C455.993 144.16 457.802 139.437 455.913 135.437C455.993 135.437 455.993 135.437 455.993 135.437C454.095 131.437 449.158 129.679 445.041 131.519C440.924 133.359 439.115 138.078 441.005 142.078Z" fill="#B6B8BE"/>
<path d="M40.2609 117.758C41.5794 118.637 43.1479 119.039 44.7072 119.039C47.4254 119.039 50.0624 117.758 51.6227 115.359C54.0908 111.597 52.9411 106.636 49.1546 104.32C45.2867 101.918 40.1806 102.957 37.7928 106.718C35.3236 110.398 36.393 115.359 40.2609 117.758Z" fill="#B6B8BE"/>
<path d="M25.5221 146.398C26.5915 146.878 27.7494 147.117 28.899 147.117C32.0269 147.117 34.9942 145.359 36.3929 142.398C38.2826 138.398 36.4732 133.679 32.3563 131.839C28.159 129.999 23.302 131.757 21.4041 135.757C19.5154 139.758 21.3248 144.559 25.5221 146.398Z" fill="#B6B8BE"/>
<path d="M205.768 18.238C206.177 18.238 206.508 18.238 206.917 18.16C211.444 17.519 214.573 13.519 213.913 9.117C213.253 4.719 209.056 1.679 204.61 2.32C200.083 2.957 196.954 7.039 197.614 11.359C198.185 15.359 201.731 18.238 205.768 18.238Z" fill="#B6B8BE"/>
<path d="M87.686 70.797C89.5839 70.797 91.4736 70.16 93.0411 68.879C96.4983 65.918 96.909 60.879 93.8614 57.52C90.9024 54.239 85.716 53.84 82.2588 56.797C78.7933 59.68 78.4712 64.719 81.4303 68.078C83.0791 69.84 85.3867 70.797 87.686 70.797Z" fill="#B6B8BE"/>
<path d="M173.653 25.039C174.393 25.039 175.133 24.957 175.96 24.719C180.318 23.438 182.795 19.039 181.476 14.797C180.238 10.559 175.63 8.16 171.264 9.359C166.898 10.636 164.428 15.039 165.748 19.359C166.817 22.797 170.025 25.039 173.653 25.039Z" fill="#B6B8BE"/>
<path d="M113.957 51.598C115.524 51.598 117.084 51.2 118.403 50.321C122.271 47.919 123.34 43.04 120.871 39.278C118.403 35.598 113.297 34.481 109.509 36.88C105.642 39.277 104.573 44.238 107.041 48C108.601 50.32 111.238 51.598 113.957 51.598Z" fill="#B6B8BE"/>
<path d="M142.855 36.238C143.925 36.238 145.163 36 146.232 35.519C150.349 33.679 152.159 28.956 150.269 24.956C148.371 20.878 143.514 19.116 139.397 20.956C135.2 22.796 133.391 27.597 135.28 31.597C136.68 34.559 139.728 36.238 142.855 36.238Z" fill="#B6B8BE"/>
<path d="M11.6909 272C16.2175 271.359 19.3464 267.359 18.6867 262.957C18.0269 258.559 13.91 255.519 9.38337 256.16C4.85676 256.797 1.72787 260.879 2.38762 265.199C2.95884 269.199 6.50458 272.078 10.5413 272.078C10.9519 272.078 11.3616 272.078 11.6909 272Z" fill="#B6B8BE"/>
<path d="M452.038 317.597C447.921 315.757 443.064 317.519 441.174 321.519C439.276 325.597 441.085 330.32 445.202 332.16C446.36 332.637 447.51 332.879 448.668 332.879C451.796 332.879 454.755 331.117 456.154 328.16C458.053 324.16 456.155 319.437 452.038 317.597Z" fill="#B6B8BE"/>
<path d="M437.298 346.238C433.511 343.84 428.413 344.879 425.937 348.636C423.469 352.32 424.618 357.277 428.413 359.679C429.812 360.558 431.372 360.956 432.852 360.956C435.57 360.956 438.207 359.679 439.776 357.276C442.243 353.519 441.174 348.558 437.298 346.238Z" fill="#B6B8BE"/>
<path d="M462.419 287.199C458.053 286 453.525 288.398 452.206 292.636C450.888 296.878 453.436 301.359 457.803 302.558C458.543 302.796 459.371 302.878 460.111 302.878C463.65 302.878 466.946 300.636 468.016 297.116C469.254 292.879 466.776 288.48 462.419 287.199Z" fill="#B6B8BE"/>
<path d="M469.419 256.199C465.053 255 460.525 257.398 459.206 261.636C457.888 265.878 460.436 270.359 464.803 271.558C465.543 271.796 466.371 271.878 467.111 271.878C470.65 271.878 473.946 269.636 475.016 266.116C476.254 261.879 473.776 257.48 469.419 256.199Z" fill="#B6B8BE"/>
<path d="M469.419 193.199C465.053 192 460.525 194.398 459.206 198.636C457.888 202.878 460.436 207.359 464.803 208.558C465.543 208.796 466.371 208.878 467.111 208.878C470.65 208.878 473.946 206.636 475.016 203.116C476.254 198.879 473.776 194.48 469.419 193.199Z" fill="#B6B8BE"/>
<path d="M412.926 93.199C414.824 93.199 416.714 92.558 418.281 91.277C421.739 88.32 422.149 83.277 419.102 80C419.102 79.918 419.102 79.918 419.102 79.918C416.143 76.637 410.956 76.238 407.499 79.117C404.122 82.078 403.711 87.117 406.67 90.48C408.319 92.238 410.627 93.199 412.926 93.199Z" fill="#B6B8BE"/>
<path d="M418.53 372.48C415.073 369.597 409.887 370 406.92 373.277C403.952 376.636 404.363 381.679 407.74 384.558C409.307 385.917 411.197 386.558 413.175 386.558C415.483 386.558 417.79 385.597 419.351 383.757C422.398 380.398 421.989 375.359 418.53 372.48Z" fill="#B6B8BE"/>
<path d="M432.691 118.797C434.171 118.797 435.738 118.32 437.137 117.438C440.925 115.118 442.074 110.161 439.605 106.399C437.137 102.719 432.031 101.68 428.243 104.079C424.375 106.399 423.306 111.36 425.775 115.118C427.336 117.438 429.973 118.797 432.691 118.797Z" fill="#B6B8BE"/>
<path d="M293.112 80.924C306.282 85.399 318.69 91.453 330.096 98.851C330.083 98.852 330.069 98.853 330.056 98.853C341.545 106.303 352.018 115.117 361.222 125.062L361.235 125.04C364.089 128.123 366.806 131.326 369.408 134.619L369.409 134.62C371.355 137.083 373.228 139.602 375.027 142.175C375.166 142.374 375.305 142.574 375.444 142.773C377.114 145.185 378.717 147.642 380.254 150.144C380.483 150.517 380.711 150.892 380.936 151.267C382.105 153.205 383.247 155.16 384.333 157.15L384.325 157.176C393.574 174.131 399.786 192.894 402.238 212.784C401.85 212.831 401.451 212.838 401.065 212.724L348.183 196.396L350.649 207.047C351.169 209.279 352.584 211.125 354.632 212.253C356.68 213.378 359.038 213.599 361.269 212.883L367.374 210.919C368.216 210.646 369.127 210.781 369.845 211.289C370.559 211.789 370.982 212.594 370.982 213.45V227.94V227.95C370.982 233.861 368.098 239.422 363.209 242.94L347.505 255.21C345.086 257.1 341.536 256.667 339.673 254.254L314.259 221.332C311.579 217.86 307.874 215.266 303.637 213.893L293.676 210.667L335.215 263.081C338.946 266.099 343.755 267.698 348.826 267.357L356.621 266.839C357.462 266.803 358.288 267.107 358.856 267.722C359.419 268.337 359.66 269.167 359.51 269.977L356.304 287.144C356.197 287.704 355.912 288.217 355.483 288.608L323.319 318.051L299.288 377.072C298.977 377.84 298.312 378.426 297.492 378.653C294.463 379.499 291.38 379.916 288.32 379.916C282.74 379.916 277.219 378.528 272.211 375.799C264.509 371.604 258.976 364.755 256.634 356.51C254.779 349.979 253.879 345.627 253.879 343.205V320.945L250.169 319.56C241.625 316.367 234.071 311.024 228.32 304.107L219.828 293.888L183.344 300.216C181.774 300.492 180.2 300.599 178.64 300.577C189.176 338.374 213.601 370.622 246.279 391.818C243.792 391.926 241.297 392.002 238.783 392.002C329.733 392.002 403.461 320.368 403.461 232.002C403.462 162.132 357.365 102.734 293.112 80.924Z" fill="#48BBEE"/>
<path d="M215.663 197.133C221.544 197.133 227.301 198.802 232.291 202.011L246.386 211.077C249.203 212.889 252.723 213.34 255.927 212.299L281.281 204.063L285.522 200.342C288.063 198.113 289.51 194.925 289.5 191.597C289.483 188.748 288.401 186.011 286.487 183.896L259.697 191.619C258.772 191.886 257.77 191.662 257.058 191.028L239.063 175.026C237.868 173.961 236.538 174.375 236.162 174.528C235.787 174.679 234.543 175.296 234.468 176.864L236.017 188.737C236.156 189.836 235.583 190.906 234.57 191.422C233.563 191.938 232.324 191.794 231.472 191.057L216.532 178.187C211.396 175.552 205.098 176.338 200.793 180.21L196.016 191.867C195.266 193.697 194.009 195.29 192.385 196.468L184.801 201.97L210.377 197.585C212.136 197.284 213.905 197.133 215.663 197.133Z" fill="#48BBEE"/>
<path d="M317.815 166.992C318.936 166.992 320.067 166.659 321.042 165.969C321.333 165.762 321.595 165.53 321.831 165.282C322.532 164.537 322.973 163.624 323.164 162.667L323.186 162.661C323.463 161.26 323.178 159.759 322.243 158.516L308.193 139.792C306.408 137.417 302.977 136.888 300.527 138.625C298.077 140.359 297.536 143.698 299.326 146.078L313.376 164.802C314.449 166.232 316.121 166.992 317.815 166.992Z" fill="#48BBEE"/>
<path d="M287.896 172.113C287.911 172.103 287.926 172.096 287.941 172.086L296.485 165.948C296.838 165.694 297.061 165.351 297.331 165.038L297.485 164.988C299.011 163.144 299.151 160.478 297.633 158.486C295.842 156.121 292.395 155.616 289.957 157.369L282.871 162.463H269.432C266.398 162.463 263.943 164.851 263.943 167.796C263.943 170.741 266.398 173.129 269.432 173.129H272.348H284.677C285.833 173.13 286.962 172.771 287.896 172.113Z" fill="#48BBEE"/>
<path d="M178.64 300.574C176.022 300.537 173.444 300.105 171.001 299.29C167.972 298.281 165.163 296.692 162.729 294.618C162.587 294.498 162.445 294.378 162.306 294.255C162.082 294.055 161.863 293.849 161.645 293.641C161.45 293.453 161.257 293.262 161.067 293.067C160.891 292.886 160.716 292.705 160.545 292.519C160.314 292.266 160.089 292.004 159.868 291.74C159.741 291.589 159.612 291.443 159.488 291.288C159.145 290.859 158.813 290.419 158.498 289.963L154.505 284.184C148.785 275.911 146.554 266.028 147.904 256.463C147.915 256.385 147.92 256.307 147.931 256.229C148 255.763 148.099 255.3 148.185 254.835C148.261 254.424 148.321 254.012 148.41 253.603C148.454 253.405 148.514 253.211 148.561 253.013C148.717 252.346 148.875 251.68 149.067 251.02C149.068 251.015 149.07 251.01 149.072 251.005C149.075 250.994 149.081 250.983 149.084 250.971C149.113 250.868 149.154 250.768 149.184 250.665C149.667 249.063 150.245 247.481 150.939 245.931C150.976 245.848 151.023 245.767 151.06 245.684C151.397 244.945 151.75 244.211 152.136 243.487L160.547 227.724L160.424 222.227C160.23 213.729 165.806 206.383 173.97 203.969L166.513 201.953C160.83 200.416 156.805 195.541 156.488 189.82L156.092 182.692C155.701 175.606 161.082 169.468 168.346 168.721L175.658 167.966V155.362C175.658 154.526 176.06 153.737 176.752 153.235L198.575 137.232C200.065 136.141 201.287 134.792 202.209 133.219L205.967 126.852L181.571 131.503C180.767 131.651 179.93 131.451 179.298 130.946C178.66 130.438 178.296 129.683 178.296 128.886V121.576C178.296 114.284 181.646 107.477 187.495 102.896L221.867 75.961C222.746 75.271 223.974 75.177 224.96 75.727L249.024 89.193C249.667 89.552 250.412 89.638 251.136 89.451C251.849 89.256 252.444 88.8 252.798 88.167L261.984 73.628L261.995 73.61C286.913 77.027 310.031 85.866 330.057 98.85C330.07 98.85 330.084 98.849 330.097 98.848C318.692 91.45 306.285 85.396 293.113 80.921C293.063 80.904 293.014 80.887 292.963 80.87C292.077 80.57 291.188 80.277 290.295 79.992C290.165 79.95 290.033 79.91 289.902 79.868C287.352 79.059 284.774 78.311 282.171 77.621C281.817 77.527 281.462 77.433 281.106 77.341C280.386 77.155 279.664 76.974 278.94 76.797C278.503 76.691 278.065 76.589 277.627 76.486C276.574 76.238 275.518 76.001 274.456 75.773C273.812 75.634 273.168 75.494 272.52 75.363C271.932 75.244 271.34 75.133 270.749 75.019C270.132 74.901 269.513 74.785 268.892 74.673C268.329 74.572 267.765 74.472 267.2 74.376C266.443 74.248 265.682 74.127 264.922 74.009C264.492 73.942 264.064 73.871 263.634 73.808C262.497 73.641 261.354 73.487 260.21 73.342C259.761 73.285 259.311 73.234 258.861 73.181C258.045 73.085 257.227 72.993 256.408 72.909C255.965 72.863 255.523 72.817 255.079 72.775C254.029 72.675 252.977 72.584 251.921 72.503C251.737 72.489 251.555 72.471 251.371 72.458C250.14 72.367 248.905 72.294 247.666 72.23C247.29 72.21 246.911 72.195 246.533 72.178C245.603 72.136 244.669 72.102 243.735 72.075C243.356 72.064 242.977 72.052 242.597 72.044C241.329 72.019 240.059 72 238.784 72C147.834 72 74.1055 143.635 74.1055 232C74.1055 320.365 147.834 392 238.784 392C241.297 392 243.793 391.924 246.28 391.816C213.602 370.619 189.178 338.371 178.64 300.574ZM151.765 130.63C153.357 128.117 156.734 127.328 159.318 128.878L168.094 134.112C170.088 135.302 171.085 137.591 170.581 139.812L166.7 156.789C166.132 159.276 163.859 160.966 161.345 160.966C160.949 160.966 160.551 160.927 160.15 160.839C157.191 160.201 155.325 157.352 155.98 154.477L159.014 141.211L153.573 137.966C150.988 136.427 150.178 133.141 151.765 130.63Z" fill="#0E94D7"/>
<path d="M300.794 264.293L300.192 265.17C296.12 271.103 289.265 274.667 281.925 274.667H217.599C210.257 274.667 203.401 278.232 199.33 284.167L188.991 299.235L183.351 300.213C179.132 300.945 174.892 300.587 171.002 299.291C173.444 300.107 176.023 300.538 178.641 300.575C180.201 300.597 181.775 300.49 183.345 300.214L219.829 293.886L228.32 304.105C234.073 311.022 241.625 316.365 250.17 319.558L253.88 320.943V343.203C253.88 345.625 254.78 349.976 256.635 356.508C258.977 364.753 264.51 371.602 272.212 375.797C277.22 378.526 282.74 379.914 288.321 379.914C291.382 379.914 294.465 379.497 297.493 378.651C298.313 378.424 298.978 377.838 299.289 377.07L323.32 318.049L355.484 288.606C355.913 288.215 356.197 287.702 356.304 287.142L359.511 269.975C359.661 269.165 359.419 268.334 358.857 267.72C358.289 267.105 357.463 266.801 356.621 266.837L348.827 267.355C343.756 267.696 338.947 266.097 335.216 263.079L311.542 259.66C307.338 259.054 303.152 260.858 300.794 264.293Z" fill="#00E389"/>
<path d="M378.838 194.248L382.332 206.939L348.184 196.395L401.066 212.723C401.452 212.837 401.851 212.83 402.239 212.783C399.787 192.894 393.576 174.131 384.326 157.175L379.163 173.84C377.106 180.482 376.994 187.549 378.838 194.248Z" fill="#00E389"/>
<path d="M246.387 211.076L232.292 202.01L250.851 213.948L281.283 204.063L255.929 212.299C252.723 213.34 249.204 212.889 246.387 211.076Z" fill="#00E389"/>
<path d="M261.983 73.631C262.078 73.644 262.176 73.649 262.27 73.662C271.253 74.909 280.001 76.861 288.454 79.457C289.067 79.645 289.658 79.877 290.268 80.072C293.733 81.18 297.156 82.379 300.516 83.7C301.638 84.141 302.73 84.634 303.839 85.098C306.648 86.274 309.429 87.501 312.154 88.822C313.411 89.431 314.645 90.074 315.883 90.713C318.412 92.018 320.905 93.379 323.353 94.806C324.601 95.534 325.84 96.274 327.066 97.033C328.014 97.62 328.921 98.261 329.855 98.866C262.723 101.885 206.09 143.944 183.464 202.217L184.803 201.97L192.387 196.468C194.011 195.29 195.268 193.697 196.018 191.867L200.795 180.21C205.099 176.338 211.398 175.551 216.534 178.187L231.474 191.057C232.327 191.794 233.565 191.937 234.572 191.422C235.585 190.906 236.159 189.836 236.019 188.737L234.47 176.864C234.546 175.296 235.789 174.679 236.165 174.528C236.54 174.374 237.869 173.96 239.065 175.026L257.06 191.028C257.772 191.661 258.774 191.885 259.699 191.619L286.489 183.896L271.72 188.153L270.327 185.746C267.923 181.592 268.759 176.379 272.348 173.13H269.432C266.398 173.13 263.943 170.742 263.943 167.797C263.943 164.852 266.398 162.464 269.432 162.464H282.871L289.957 157.37C292.396 155.617 295.843 156.122 297.633 158.487C299.151 160.479 299.011 163.145 297.485 164.989L304.654 162.667H311.774L313.376 164.802L299.326 146.078C297.535 143.698 298.077 140.359 300.527 138.625C302.977 136.888 306.408 137.417 308.193 139.792L322.243 158.516C323.179 159.759 323.463 161.26 323.186 162.661L334.106 159.736C339.841 158.2 344.69 154.468 347.542 149.396L361.221 125.062C352.016 115.117 341.544 106.303 330.055 98.853C310.03 85.868 286.912 77.03 261.993 73.613L261.983 73.631Z" fill="#00E389"/>
<path d="M153.571 137.966L159.011 141.211L155.977 154.477C155.324 157.352 157.189 160.201 160.148 160.839C160.55 160.927 160.946 160.966 161.343 160.966C163.857 160.966 166.13 159.276 166.698 156.789L170.579 139.812C171.083 137.591 170.086 135.302 168.091 134.112L159.316 128.878C156.733 127.328 153.355 128.118 151.763 130.63C150.177 133.141 150.987 136.427 153.571 137.966Z" fill="#00BBBB"/>
<path d="M183.463 202.219C206.089 143.946 262.722 101.886 329.854 98.868C328.919 98.263 328.013 97.622 327.065 97.035C325.838 96.276 324.599 95.536 323.351 94.808C320.904 93.381 318.411 92.02 315.882 90.715C314.645 90.076 313.41 89.433 312.153 88.824C309.428 87.503 306.648 86.276 303.838 85.1C302.729 84.635 301.636 84.143 300.514 83.702C297.155 82.381 293.732 81.182 290.266 80.074C289.657 79.879 289.065 79.647 288.453 79.459C280 76.863 271.252 74.911 262.269 73.664C262.174 73.651 262.076 73.646 261.982 73.633L252.796 88.172C252.442 88.805 251.847 89.261 251.134 89.456C250.41 89.644 249.665 89.558 249.022 89.198L224.958 75.732C223.972 75.182 222.744 75.276 221.865 75.966L187.493 102.901C181.644 107.482 178.293 114.289 178.293 121.581V128.891C178.293 129.688 178.658 130.443 179.296 130.951C179.929 131.456 180.764 131.657 181.568 131.508L205.964 126.857L202.207 133.224C201.284 134.797 200.063 136.146 198.572 137.237L176.749 153.24C176.058 153.742 175.655 154.532 175.655 155.367V167.971L168.344 168.726C161.08 169.474 155.698 175.611 156.089 182.697L156.486 189.825C156.802 195.546 160.828 200.421 166.51 201.958L173.967 203.974L183.463 202.219Z" fill="#00BBBB"/>
<path d="M334.107 159.736L323.187 162.661L323.165 162.667C322.974 163.624 322.532 164.537 321.832 165.282C321.598 165.531 321.335 165.761 321.043 165.969C320.067 166.659 318.936 166.992 317.816 166.992C316.122 166.992 314.449 166.232 313.377 164.802L311.774 162.667H304.655L297.485 164.989L297.332 165.039C297.061 165.351 296.839 165.695 296.486 165.949L287.941 172.087C287.927 172.097 287.911 172.104 287.897 172.114C286.961 172.773 285.837 173.132 284.68 173.132H284.677H272.347C268.758 176.381 267.924 181.594 270.327 185.748L271.719 188.155L286.488 183.897C288.401 186.012 289.484 188.749 289.501 191.598C289.511 194.926 288.064 198.114 285.523 200.343L281.282 204.064L250.85 213.949L232.291 202.011C227.3 198.803 221.543 197.133 215.663 197.133C213.905 197.133 212.136 197.284 210.378 197.586L184.802 201.971L183.463 202.218L173.968 203.971L183.507 202.21C176.686 219.771 172.912 238.785 172.912 258.667C172.912 273.16 174.939 287.183 178.658 300.532C172.776 300.45 167.128 298.348 162.729 294.619C165.163 296.693 167.972 298.282 171.001 299.291C174.893 300.587 179.132 300.945 183.35 300.213L188.99 299.235L199.329 284.167C203.402 278.232 210.256 274.667 217.598 274.667H281.924C289.265 274.667 296.119 271.104 300.191 265.17L300.793 264.293C303.151 260.858 307.337 259.054 311.541 259.661L335.215 263.08L293.676 210.666L303.637 213.892C307.875 215.264 311.58 217.859 314.259 221.331L339.673 254.253C341.536 256.666 345.085 257.099 347.504 255.209L363.209 242.939C368.098 239.421 370.981 233.86 370.981 227.949V227.939V213.449C370.981 212.592 370.558 211.788 369.845 211.288C369.127 210.78 368.216 210.645 367.374 210.918L361.269 212.882C359.038 213.598 356.68 213.377 354.632 212.252C352.584 211.124 351.169 209.278 350.649 207.046L348.183 196.395L382.331 206.939L378.837 194.248C376.992 187.548 377.104 180.482 379.162 173.841L384.325 157.176L384.333 157.15C383.247 155.161 382.104 153.206 380.936 151.267C380.71 150.892 380.482 150.517 380.254 150.144C378.718 147.642 377.114 145.184 375.444 142.773C375.306 142.573 375.166 142.374 375.027 142.175C373.228 139.602 371.355 137.083 369.409 134.62L369.408 134.619C366.806 131.326 364.089 128.123 361.235 125.04L361.222 125.062L347.543 149.396C344.691 154.469 339.842 158.2 334.107 159.736Z" fill="#FFEDB9"/>
<path d="M178.658 300.531C174.94 287.183 172.913 273.159 172.913 258.666C172.913 238.785 176.686 219.771 183.508 202.21L173.969 203.971C165.805 206.385 160.229 213.731 160.423 222.229L160.546 227.726L152.135 243.489C151.749 244.212 151.396 244.947 151.059 245.686C151.021 245.769 150.975 245.85 150.938 245.933C150.244 247.483 149.665 249.065 149.183 250.667C149.147 250.786 149.101 250.902 149.067 251.021C148.875 251.681 148.717 252.348 148.561 253.014C148.514 253.211 148.454 253.406 148.411 253.604C148.321 254.013 148.261 254.425 148.185 254.836C148.1 255.3 148 255.763 147.931 256.23C147.92 256.308 147.915 256.386 147.904 256.464C147.822 257.048 147.762 257.634 147.706 258.221C147.603 259.316 147.528 260.413 147.518 261.511C147.509 262.471 147.542 263.431 147.604 264.389C147.702 265.931 147.898 267.466 148.181 268.989C148.243 269.321 148.313 269.651 148.383 269.982C148.892 272.382 149.616 274.746 150.581 277.038C151.277 278.69 152.09 280.305 153.021 281.872C153.487 282.656 153.982 283.427 154.506 284.185L158.499 289.964C158.814 290.42 159.147 290.86 159.489 291.289C159.613 291.443 159.742 291.59 159.869 291.741C160.09 292.005 160.315 292.267 160.546 292.52C160.717 292.706 160.892 292.888 161.068 293.068C161.259 293.263 161.45 293.454 161.647 293.642C161.864 293.85 162.083 294.057 162.307 294.256C162.446 294.38 162.588 294.499 162.73 294.619C167.127 298.347 172.777 300.449 178.658 300.531Z" fill="#FFD586"/>
</svg>
