<svg width="470" height="464" viewBox="0 0 470 464" fill="none" xmlns="http://www.w3.org/2000/svg">
<path d="M58.1401 91.52C59.6767 92.797 61.5448 93.438 63.4058 93.438C65.6784 93.438 67.9509 92.481 69.5747 90.637C72.4888 87.36 72.0854 82.239 68.7587 79.36C65.354 76.481 60.2464 76.797 57.3241 80.161C54.3319 83.52 54.7354 88.559 58.1401 91.52Z" fill="#B6B8BE"/>
<path d="M39.8158 346.558C36.0857 348.956 34.9454 353.917 37.377 357.597C38.9208 359.999 41.5977 361.277 44.1956 361.277C45.7323 361.277 47.276 360.879 48.6535 360C52.3836 357.598 53.4368 352.637 51.0842 348.957C48.5744 345.199 43.5459 344.16 39.8158 346.558Z" fill="#B6B8BE"/>
<path d="M58.3862 372.797C54.9815 375.68 54.6561 380.719 57.5703 384.078C59.114 385.918 61.3794 386.797 63.652 386.797C65.6001 386.797 67.4611 386.16 69.0049 384.879C72.3305 382 72.735 376.879 69.8127 373.598C66.8986 370.238 61.7038 369.918 58.3862 372.797Z" fill="#B6B8BE"/>
<path d="M91.8751 395.359H91.9542C88.5495 392.48 83.4419 392.796 80.4405 396.16C77.5183 399.519 77.9227 404.558 81.2484 407.437C82.7921 408.796 84.7403 409.437 86.6013 409.437C88.8738 409.437 91.1464 408.48 92.7621 406.636C95.6833 403.277 95.2799 398.238 91.8751 395.359Z" fill="#B6B8BE"/>
<path d="M116.93 413.84C113.2 411.438 108.171 412.559 105.741 416.238C103.31 420 104.442 424.957 108.171 427.277C109.549 428.16 111.006 428.558 112.55 428.558C115.227 428.558 117.824 427.277 119.36 424.878C121.792 421.199 120.739 416.238 116.93 413.84Z" fill="#B6B8BE"/>
<path d="M8.10893 240.238C12.5668 240.16 16.2179 236.636 16.2179 232.238C16.2179 227.758 12.5668 224.238 8.10893 224.238C3.65104 224.238 0 227.758 0 232.238C0 236.637 3.65104 240.238 8.10893 240.238Z" fill="#B6B8BE"/>
<path d="M35.9997 321.918C34.1387 317.918 29.3555 316.16 25.2138 318C21.1594 319.84 19.3774 324.559 21.2465 328.559C22.624 331.52 25.5382 333.278 28.6267 333.278C29.7589 333.278 30.8911 333.04 32.0314 332.481C36.0869 330.636 37.8678 325.918 35.9997 321.918Z" fill="#B6B8BE"/>
<path d="M25.0558 293.039C23.8364 288.797 19.2985 286.399 14.9987 287.68C10.6989 288.879 8.26728 293.359 9.48666 297.598C10.5398 301.039 13.7864 303.36 17.2712 303.36C18 303.36 18.8079 303.2 19.5438 302.958C23.8364 301.758 26.3542 297.277 25.0558 293.039Z" fill="#B6B8BE"/>
<path d="M297.029 439.277C292.729 440.48 290.298 444.957 291.597 449.199C292.65 452.637 295.81 454.879 299.382 454.879C300.11 454.879 300.918 454.797 301.654 454.559C305.946 453.36 308.386 448.879 307.166 444.637C305.867 440.398 301.408 438 297.029 439.277Z" fill="#B6B8BE"/>
<path d="M266.542 445.84C262.076 446.399 258.995 450.481 259.644 454.879C260.294 458.879 263.698 461.68 267.674 461.68C268.077 461.68 268.482 461.68 268.893 461.598C268.806 461.598 268.806 461.598 268.806 461.598C273.272 461.039 276.352 456.957 275.704 452.559C275.054 448.238 270.999 445.199 266.542 445.84Z" fill="#B6B8BE"/>
<path d="M326.305 428.48C322.251 430.32 320.461 435.039 322.33 439.039C323.628 442 326.63 443.68 329.71 443.68C330.842 443.68 331.975 443.438 333.028 442.957C337.082 441.117 338.951 436.398 337.003 432.398C335.142 428.32 330.36 426.636 326.305 428.48Z" fill="#B6B8BE"/>
<path d="M9.24094 208.238C9.64436 208.32 9.96973 208.32 10.3813 208.32C14.3485 208.32 17.8405 205.437 18.403 201.437C19.0527 197.039 15.8923 193.039 11.5135 192.398C7.05558 191.757 2.91395 194.796 2.35139 199.199C1.70268 203.598 4.78305 207.598 9.24094 208.238Z" fill="#B6B8BE"/>
<path d="M353.713 413.597C349.895 415.999 348.842 420.956 351.274 424.718C352.817 427.038 355.415 428.32 358.092 428.32C359.629 428.32 361.094 427.918 362.471 427.039C366.28 424.637 367.333 419.758 364.902 416C362.47 412.32 357.442 411.199 353.713 413.597Z" fill="#B6B8BE"/>
<path d="M204.18 445.84C199.722 445.199 195.667 448.238 195.018 452.637C194.447 457.039 197.448 461.039 201.907 461.68C202.319 461.758 202.723 461.758 203.127 461.758C207.023 461.758 210.507 458.879 211.077 454.879C211.719 450.48 208.639 446.48 204.18 445.84Z" fill="#B6B8BE"/>
<path d="M173.692 439.359C169.393 438.16 164.855 440.558 163.635 444.797C162.337 449.039 164.767 453.52 169.067 454.719C169.146 454.719 169.146 454.719 169.146 454.719C169.883 454.957 170.611 455.039 171.34 455.039C174.904 455.039 178.15 452.797 179.203 449.277C180.424 445.039 177.906 440.558 173.692 439.359Z" fill="#B6B8BE"/>
<path d="M235.404 448C230.859 448 227.295 451.598 227.295 456C227.295 460.398 230.859 464 235.404 464C239.862 464 243.513 460.398 243.513 456C243.513 451.597 239.863 448 235.404 448Z" fill="#B6B8BE"/>
<path d="M144.337 428.636C140.283 426.796 135.499 428.558 133.63 432.558C131.769 436.558 133.551 441.359 137.606 443.199C138.738 443.679 139.878 443.918 141.01 443.918C144.091 443.918 147.013 442.16 148.391 439.199C150.261 435.199 148.472 430.48 144.337 428.636Z" fill="#B6B8BE"/>
<path d="M325.98 35.359C327.033 35.839 328.244 36.078 329.297 36.078C332.386 36.078 335.3 34.398 336.677 31.437C338.547 27.437 336.765 22.636 332.71 20.796C328.656 19.038 323.785 20.796 321.924 24.796C320.136 28.797 321.925 33.52 325.98 35.359Z" fill="#B6B8BE"/>
<path d="M378.688 395.117C375.283 398 374.87 403.039 377.872 406.398C379.496 408.238 381.681 409.117 383.953 409.117C385.902 409.117 387.763 408.48 389.306 407.199C392.711 404.32 393.036 399.199 390.114 395.918C387.122 392.558 382.006 392.238 378.688 395.117Z" fill="#B6B8BE"/>
<path d="M353.387 50.16C354.765 51.039 356.301 51.437 357.766 51.437C360.443 51.437 363.032 50.16 364.576 47.757C367.007 43.999 365.954 39.116 362.146 36.718C358.416 34.32 353.387 35.359 350.957 39.116C348.518 42.797 349.658 47.758 353.387 50.16Z" fill="#B6B8BE"/>
<path d="M296.705 24.637C297.434 24.879 298.162 24.957 298.89 24.957C302.461 24.957 305.709 22.719 306.762 19.199C307.973 14.957 305.543 10.48 301.243 9.27701C296.951 8.07801 292.405 10.48 291.194 14.718C289.894 18.957 292.404 23.438 296.705 24.637Z" fill="#B6B8BE"/>
<path d="M266.13 18.16C266.541 18.238 266.946 18.238 267.27 18.238C271.246 18.238 274.729 15.359 275.3 11.359C275.95 6.95699 272.861 2.95699 268.402 2.31999C263.945 1.67899 259.89 4.71799 259.24 9.11699C258.591 13.438 261.671 17.52 266.13 18.16Z" fill="#B6B8BE"/>
<path d="M234.914 16C234.943 16 234.963 16 234.993 16C239.459 16 243.102 12.398 243.102 8C243.023 3.598 239.459 0 234.914 0C230.456 0 226.805 3.598 226.805 8C226.805 12.398 230.455 16 234.914 16Z" fill="#B6B8BE"/>
<path d="M445.262 170.957C446.236 174.398 449.475 176.719 452.96 176.719C453.776 176.719 454.503 176.559 455.311 176.399C459.611 175.118 462.043 170.637 460.83 166.481C460.83 166.399 460.83 166.399 460.83 166.399C459.532 162.161 454.986 159.758 450.694 161.04C446.394 162.238 443.964 166.719 445.262 170.957Z" fill="#B6B8BE"/>
<path d="M14.9195 176.719C15.6483 176.957 16.4633 177.039 17.192 177.039C20.6769 177.039 23.9235 174.797 24.9766 171.277C26.1879 167.039 23.7572 162.636 19.4575 161.359C15.1658 160.16 10.6198 162.636 9.40849 166.879C9.40849 166.797 9.40849 166.797 9.40849 166.797C8.18809 171.039 10.6198 175.52 14.9195 176.719Z" fill="#B6B8BE"/>
<path d="M378.443 68.637C379.979 69.918 381.847 70.559 383.708 70.559C385.981 70.559 388.254 69.68 389.877 67.84C392.792 64.481 392.388 59.438 389.061 56.559C385.657 53.68 380.549 54 377.627 57.36C374.634 60.719 375.038 65.758 378.443 68.637Z" fill="#B6B8BE"/>
<path d="M434.31 142.078C435.688 145.039 438.61 146.797 441.69 146.797C442.743 146.797 443.963 146.559 445.016 146C449.07 144.16 450.852 139.437 448.991 135.437C449.07 135.437 449.07 135.437 449.07 135.437C447.201 131.437 442.339 129.679 438.285 131.519C434.23 133.359 432.449 138.078 434.31 142.078Z" fill="#B6B8BE"/>
<path d="M39.6496 117.758C40.948 118.637 42.4928 119.039 44.0284 119.039C46.7054 119.039 49.3023 117.758 50.8389 115.359C53.2695 111.597 52.1373 106.636 48.4082 104.32C44.5991 101.918 39.5705 102.957 37.2189 106.718C34.7873 110.398 35.8404 115.359 39.6496 117.758Z" fill="#B6B8BE"/>
<path d="M25.1348 146.398C26.1879 146.878 27.3282 147.117 28.4604 147.117C31.5408 147.117 34.4631 145.359 35.8406 142.398C37.7016 138.398 35.9196 133.679 31.8652 131.839C27.7316 129.999 22.9484 131.757 21.0793 135.757C19.2193 139.758 21.0012 144.559 25.1348 146.398Z" fill="#B6B8BE"/>
<path d="M202.644 18.238C203.048 18.238 203.373 18.238 203.776 18.16C208.234 17.519 211.316 13.519 210.666 9.117C210.016 4.719 205.883 1.679 201.504 2.32C197.046 2.957 193.965 7.039 194.614 11.359C195.177 15.359 198.669 18.238 202.644 18.238Z" fill="#B6B8BE"/>
<path d="M86.3549 70.797C88.224 70.797 90.085 70.16 91.6287 68.879C95.0334 65.918 95.4379 60.879 92.4366 57.52C89.5224 54.239 84.4148 53.84 81.0101 56.797C77.5972 59.68 77.28 64.719 80.1941 68.078C81.8179 69.84 84.0904 70.797 86.3549 70.797Z" fill="#B6B8BE"/>
<path d="M171.016 25.039C171.745 25.039 172.474 24.957 173.289 24.719C177.581 23.438 180.02 19.039 178.721 14.797C177.501 10.559 172.964 8.16 168.664 9.359C164.364 10.636 161.932 15.039 163.232 19.359C164.285 22.797 167.444 25.039 171.016 25.039Z" fill="#B6B8BE"/>
<path d="M112.226 51.598C113.77 51.598 115.307 51.2 116.605 50.321C120.414 47.919 121.468 43.04 119.036 39.278C116.605 35.598 111.577 34.481 107.847 36.88C104.038 39.277 102.985 44.238 105.416 48C106.953 50.32 109.55 51.598 112.226 51.598Z" fill="#B6B8BE"/>
<path d="M140.687 36.238C141.74 36.238 142.959 36 144.012 35.519C148.067 33.679 149.849 28.956 147.988 24.956C146.119 20.878 141.335 19.116 137.281 20.956C133.147 22.796 131.365 27.597 133.226 31.597C134.605 34.559 137.606 36.238 140.687 36.238Z" fill="#B6B8BE"/>
<path d="M11.5137 272C15.9716 271.359 19.053 267.359 18.4032 262.957C17.7535 258.559 13.699 255.519 9.24116 256.16C4.78328 256.797 1.70189 260.879 2.35162 265.199C2.91417 269.199 6.40608 272.078 10.3815 272.078C10.7859 272.078 11.1893 272.078 11.5137 272Z" fill="#B6B8BE"/>
<path d="M445.175 317.597C441.121 315.757 436.338 317.519 434.477 321.519C432.607 325.597 434.389 330.32 438.444 332.16C439.584 332.637 440.716 332.879 441.857 332.879C444.937 332.879 447.851 331.117 449.229 328.16C451.099 324.16 449.23 319.437 445.175 317.597Z" fill="#B6B8BE"/>
<path d="M455.398 287.199C451.099 286 446.64 288.398 445.341 292.636C444.043 296.878 446.553 301.359 450.853 302.558C451.582 302.796 452.397 302.878 453.126 302.878C456.611 302.878 459.857 300.636 460.91 297.116C462.13 292.879 459.69 288.48 455.398 287.199Z" fill="#B6B8BE"/>
<path d="M430.66 346.238C426.93 343.84 421.909 344.879 419.471 348.636C417.04 352.32 418.172 357.277 421.909 359.679C423.287 360.558 424.824 360.956 426.281 360.956C428.958 360.956 431.555 359.679 433.1 357.276C435.529 353.519 434.476 348.558 430.66 346.238Z" fill="#B6B8BE"/>
<path d="M462.739 256.308C458.439 255.109 453.98 257.507 452.682 261.745C451.383 265.987 453.893 270.468 458.194 271.667C458.922 271.905 459.737 271.987 460.466 271.987C463.951 271.987 467.198 269.745 468.251 266.225C469.47 261.988 467.03 257.589 462.739 256.308Z" fill="#B6B8BE"/>
<path d="M463.739 224.308C459.439 223.109 454.98 225.507 453.682 229.745C452.383 233.987 454.893 238.468 459.194 239.667C459.922 239.905 460.737 239.987 461.466 239.987C464.951 239.987 468.198 237.745 469.251 234.225C470.47 229.988 468.03 225.589 463.739 224.308Z" fill="#B6B8BE"/>
<path d="M462.398 192.199C458.099 191 453.64 193.398 452.341 197.636C451.043 201.878 453.553 206.359 457.853 207.558C458.582 207.796 459.397 207.878 460.126 207.878C463.611 207.878 466.857 205.636 467.91 202.116C469.13 197.879 466.69 193.48 462.398 192.199Z" fill="#B6B8BE"/>
<path d="M406.658 93.199C408.527 93.199 410.388 92.558 411.931 91.277C415.336 88.32 415.741 83.277 412.739 80C412.739 79.918 412.739 79.918 412.739 79.918C409.825 76.637 404.717 76.238 401.313 79.117C397.987 82.078 397.583 87.117 400.497 90.48C402.121 92.238 404.393 93.199 406.658 93.199Z" fill="#B6B8BE"/>
<path d="M412.177 372.48C408.772 369.597 403.665 370 400.742 373.277C397.82 376.636 398.224 381.679 401.55 384.558C403.094 385.917 404.955 386.558 406.903 386.558C409.176 386.558 411.448 385.597 412.985 383.757C415.986 380.398 415.583 375.359 412.177 372.48Z" fill="#B6B8BE"/>
<path d="M426.122 118.797C427.58 118.797 429.124 118.32 430.501 117.438C434.231 115.118 435.363 110.161 432.932 106.399C430.501 102.719 425.472 101.68 421.742 104.079C417.933 106.399 416.88 111.36 419.312 115.118C420.848 117.438 423.446 118.797 426.122 118.797Z" fill="#B6B8BE"/>
<path d="M464.451 200.084C464.249 200.071 464.049 200.05 463.848 200.04C464.049 200.051 464.249 200.071 464.451 200.084Z" fill="#FFEDB9"/>
</svg>
