<svg width="64" height="64" viewBox="0 0 64 64" fill="none" xmlns="http://www.w3.org/2000/svg">
<path d="M64 32C64 22.322 59.698 13.654 52.908 7.78601C53.279 8.10701 53.643 8.43602 53.999 8.77402C52.731 8.62102 51.442 8.53302 50.133 8.53302C32.46 8.53302 18.133 22.86 18.133 40.533C18.133 49.682 21.978 57.927 28.133 63.759C23.68 63.222 19.509 61.772 15.812 59.6C17.716 60.719 19.746 61.645 21.875 62.355C25.059 63.417 28.46 64 32 64C33.966 64 35.887 63.813 37.754 63.474C52.679 60.762 64 47.707 64 32Z" fill="#FFEDB9"/>
<path d="M28.133 63.759C21.978 57.927 18.133 49.682 18.133 40.533C18.133 22.86 32.46 8.533 50.133 8.533C51.443 8.533 52.731 8.621 53.999 8.774C53.643 8.436 53.279 8.107 52.908 7.786C52.903 7.782 52.899 7.778 52.894 7.774C52.529 7.458 52.156 7.151 51.776 6.85201C51.763 6.84101 51.749 6.83101 51.736 6.82001C51.365 6.52901 50.988 6.24599 50.604 5.97099C50.578 5.95299 50.553 5.934 50.527 5.916C50.154 5.65 49.775 5.39301 49.391 5.14301C49.351 5.11701 49.31 5.091 49.269 5.065C48.897 4.825 48.519 4.594 48.136 4.369C48.079 4.335 48.021 4.303 47.963 4.27C47.594 4.057 47.221 3.85 46.842 3.651C46.765 3.611 46.687 3.572 46.61 3.532C46.247 3.345 45.881 3.16401 45.51 2.99001C45.412 2.94401 45.312 2.901 45.213 2.856C44.858 2.695 44.501 2.53701 44.14 2.38901C44.019 2.33901 43.896 2.293 43.775 2.245C43.431 2.109 43.085 1.97501 42.735 1.85001C42.589 1.79801 42.441 1.751 42.294 1.701C41.962 1.588 41.63 1.477 41.293 1.375C41.121 1.323 40.947 1.277 40.774 1.228C40.457 1.138 40.14 1.047 39.819 0.966003C39.617 0.915003 39.412 0.871997 39.209 0.824997C38.911 0.755997 38.613 0.686 38.312 0.625C38.097 0.582 37.88 0.548003 37.664 0.509003C37.646 0.506003 37.627 0.503 37.609 0.5C37.331 0.451 37.054 0.398003 36.774 0.356003C36.504 0.315003 36.23 0.285999 35.957 0.251999C35.708 0.220999 35.46 0.185004 35.209 0.160004C34.879 0.127004 34.545 0.107 34.212 0.0839996C34.013 0.0709996 33.817 0.0499933 33.617 0.0399933C33.081 0.0139933 32.542 0 32 0C28.486 0 25.108 0.574002 21.945 1.621C9.20001 5.838 0 17.841 0 32C0 32.533 0.0140085 33.062 0.0400085 33.589C0.0490085 33.765 0.0659958 33.939 0.0769958 34.114C0.0999958 34.463 0.122006 34.811 0.156006 35.156C0.176006 35.364 0.205004 35.571 0.229004 35.778C0.265004 36.087 0.301008 36.396 0.346008 36.702C0.379008 36.923 0.417987 37.141 0.454987 37.36C0.503987 37.649 0.553009 37.937 0.609009 38.223C0.654009 38.449 0.703991 38.674 0.752991 38.898C0.812991 39.172 0.874986 39.446 0.941986 39.717C0.998986 39.946 1.06001 40.174 1.12201 40.402C1.19301 40.663 1.26599 40.924 1.34399 41.182C1.41299 41.413 1.48499 41.643 1.55899 41.871C1.63999 42.121 1.724 42.369 1.811 42.616C1.892 42.847 1.97501 43.078 2.06201 43.307C2.15201 43.545 2.246 43.78 2.341 44.015C2.435 44.247 2.53 44.48 2.63 44.709C2.727 44.934 2.83001 45.155 2.93201 45.377C3.04001 45.612 3.14799 45.847 3.26099 46.078C3.36199 46.283 3.468 46.485 3.573 46.688C3.698 46.93 3.82201 47.173 3.95401 47.411C4.05101 47.587 4.154 47.76 4.254 47.934C4.403 48.192 4.54899 48.452 4.70499 48.705C4.77299 48.815 4.845 48.922 4.914 49.031C5.611 50.136 6.36899 51.199 7.19199 52.207C7.19499 52.21 7.19701 52.213 7.19901 52.217C7.45301 52.528 7.71599 52.832 7.98199 53.133C8.03799 53.197 8.09299 53.263 8.14999 53.327C8.40399 53.61 8.66499 53.887 8.92899 54.161C9.00199 54.236 9.072 54.314 9.146 54.388C9.409 54.656 9.679 54.919 9.952 55.178C10.029 55.251 10.106 55.326 10.184 55.399C10.461 55.657 10.743 55.909 11.029 56.157C11.106 56.224 11.183 56.292 11.261 56.358C11.554 56.608 11.853 56.852 12.155 57.092C12.227 57.149 12.299 57.206 12.372 57.262C12.686 57.506 13.004 57.745 13.328 57.978C13.388 58.021 13.449 58.064 13.51 58.107C13.849 58.348 14.193 58.583 14.542 58.811C14.583 58.838 14.624 58.863 14.665 58.89C15.037 59.13 15.414 59.365 15.797 59.59C15.802 59.593 15.807 59.596 15.813 59.599C19.509 61.772 23.68 63.222 28.133 63.759Z" fill="#FFD586"/>
</svg>
